<?xml version="1.0" standalone="no"?>
<!DOCTYPE svg PUBLIC "-//W3C//DTD SVG 20010904//EN"
 "http://www.w3.org/TR/2001/REC-SVG-20010904/DTD/svg10.dtd">
<svg version="1.0" xmlns="http://www.w3.org/2000/svg"
 width="2751.000000pt" height="472.000000pt" viewBox="0 0 2751.000000 472.000000"
 preserveAspectRatio="xMidYMid meet">

<g transform="translate(0.000000,472.000000) scale(0.100000,-0.100000)"
fill="#000000" stroke="none">
<path d="M2985 4709 c-1099 -89 -1985 -921 -2146 -2014 -40 -271 -21 -640 45
-900 160 -627 553 -1152 1101 -1470 753 -438 1675 -427 2420 29 285 175 544
425 730 705 192 290 324 640 370 981 l6 45 -20 -43 c-48 -101 -147 -188 -259
-228 -60 -21 -84 -24 -230 -24 l-162 0 2 172 3 173 148 5 c141 5 150 6 168 29
11 14 19 39 19 61 0 22 -8 47 -19 61 -18 23 -27 24 -168 29 l-148 5 -3 173 -2
174 182 -4 c182 -3 183 -3 248 -35 121 -60 196 -143 237 -262 l22 -66 1 55 c0
243 -59 574 -146 807 -233 635 -725 1138 -1356 1387 -208 82 -450 136 -692
156 -143 11 -204 11 -351 -1z m370 -976 c71 -23 164 -117 194 -198 19 -49 22
-74 19 -140 -6 -99 -34 -160 -107 -228 -76 -71 -128 -92 -231 -92 -76 0 -92 3
-152 33 -190 93 -251 326 -131 500 89 130 243 177 408 125z m234 -768 c162
-39 301 -170 351 -333 18 -59 20 -93 20 -444 0 -366 -1 -382 -20 -414 -27 -43
-99 -78 -143 -70 -47 9 -94 41 -114 78 -16 29 -19 70 -23 363 l-5 330 -29 3
c-16 2 -34 -2 -40 -8 -8 -8 -12 -230 -16 -785 l-5 -775 -37 -36 c-30 -31 -45
-38 -89 -42 -64 -6 -109 15 -142 67 -22 36 -22 42 -25 455 -2 282 -6 424 -14
433 -14 18 -43 16 -62 -3 -14 -13 -16 -67 -16 -431 0 -465 0 -462 -69 -501
-75 -43 -170 -19 -209 51 -16 29 -17 95 -20 797 -2 588 -5 766 -15 772 -22 14
-56 8 -67 -11 -6 -13 -10 -137 -10 -337 0 -362 0 -363 -86 -404 -50 -25 -89
-22 -141 10 -68 41 -68 44 -68 455 0 418 5 455 74 563 70 107 199 199 311 221
25 5 180 9 345 10 236 1 314 -3 364 -14z m-1991 -407 l-3 -173 -148 -5 c-141
-5 -150 -6 -168 -29 -21 -25 -25 -81 -9 -112 21 -39 62 -49 200 -49 l130 0 0
-171 0 -171 -182 4 c-179 4 -184 4 -248 34 -95 45 -172 120 -217 212 -35 70
-38 84 -41 175 -3 83 0 109 18 161 38 104 104 183 201 239 75 44 139 56 312
56 l157 1 -2 -172z m292 -3 l0 -175 -100 0 -100 0 0 175 0 175 100 0 100 0 0
-175z m420 85 c69 -22 132 -44 140 -47 8 -4 -25 -10 -75 -13 l-90 -5 -3 -47
c-2 -27 -4 -48 -6 -48 -12 0 -273 94 -280 101 -6 5 30 9 87 9 l97 0 0 45 c0
25 1 45 3 45 1 0 58 -18 127 -40z m2440 -145 l0 -175 -100 0 -100 0 0 175 0
175 100 0 100 0 0 -175z m-490 80 l0 -45 90 0 c50 0 90 -3 90 -8 0 -4 -63 -28
-140 -54 l-140 -46 0 49 0 48 -97 3 -98 3 135 47 c74 25 141 47 148 47 8 1 12
-14 12 -44z m-2370 -555 l0 -170 -100 0 -100 0 0 170 0 170 100 0 100 0 0
-170z m2860 -55 l0 -175 -100 0 -100 0 0 175 0 175 100 0 100 0 0 -175z
m-2372 35 c55 0 92 -4 87 -9 -11 -10 -254 -91 -273 -91 -8 0 -12 16 -12 45 l0
45 -97 0 c-53 0 -93 3 -89 8 4 4 69 28 144 53 l137 46 3 -49 3 -48 97 0z
m2025 -41 c63 -17 42 -29 -53 -29 l-90 0 0 -46 c0 -34 -4 -45 -14 -42 -55 12
-266 84 -266 91 0 4 41 7 90 7 l90 0 0 49 0 50 103 -35 c56 -19 119 -39 140
-45z"/>
<path d="M3140 2877 c-49 -16 -123 -93 -138 -143 -6 -23 -12 -85 -12 -137 l0
-96 55 41 c52 39 55 43 55 85 0 60 23 109 62 133 42 25 74 25 116 0 51 -31 62
-70 62 -217 0 -102 -4 -135 -18 -163 -22 -46 -74 -73 -124 -64 l-38 6 0 -56
c0 -51 2 -56 25 -62 68 -17 169 24 215 88 45 61 52 103 48 277 -3 138 -6 161
-25 198 -54 100 -170 146 -283 110z"/>
<path d="M3125 2521 c-45 -21 -89 -62 -113 -106 -21 -37 -30 -328 -13 -392 46
-171 262 -224 387 -95 47 49 64 107 64 225 l0 99 -46 -41 c-26 -23 -50 -41
-54 -41 -4 0 -10 -29 -12 -63 -6 -70 -25 -108 -64 -125 -61 -28 -131 -5 -158
53 -15 30 -17 60 -14 181 l3 146 39 35 c35 32 43 35 85 31 l46 -5 -3 59 -4 58
-51 0 c-29 0 -70 -9 -92 -19z"/>
<path d="M8855 3246 c-147 -67 -168 -275 -38 -372 182 -137 420 68 318 273
-38 75 -89 107 -179 111 -45 1 -82 -3 -101 -12z"/>
<path d="M11450 2295 l0 -925 184 0 185 0 3 418 c3 401 4 419 24 463 48 104
143 164 259 163 81 0 119 -17 163 -70 58 -70 62 -107 62 -562 l0 -412 186 0
185 0 -3 483 -3 482 -27 69 c-53 137 -131 224 -257 284 -66 32 -84 36 -176 40
-85 4 -115 1 -172 -16 -70 -22 -172 -81 -207 -120 -11 -12 -23 -22 -28 -22 -4
0 -8 146 -8 325 l0 325 -185 0 -185 0 0 -925z"/>
<path d="M24950 2295 l0 -925 184 0 185 0 3 418 c3 401 4 419 24 463 48 104
143 164 259 163 81 0 119 -17 163 -70 58 -70 62 -107 62 -562 l0 -412 186 0
185 0 -3 483 -3 482 -27 69 c-53 137 -131 224 -257 284 -66 32 -84 36 -176 40
-85 4 -115 1 -172 -16 -70 -22 -172 -81 -207 -120 -11 -12 -23 -22 -28 -22 -4
0 -8 146 -8 325 l0 325 -185 0 -185 0 0 -925z"/>
<path d="M6750 2250 l0 -870 190 0 190 0 2 278 3 277 131 3 132 3 29 -38 c16
-21 105 -147 198 -280 l168 -243 234 0 235 0 -18 28 c-9 15 -105 150 -211 301
-107 150 -196 278 -199 285 -2 6 22 22 53 36 112 48 211 172 249 311 24 87 29
241 11 342 -46 265 -208 391 -547 427 -52 5 -265 10 -472 10 l-378 0 0 -870z
m821 530 c141 -27 194 -92 194 -240 0 -74 -4 -92 -30 -145 -26 -53 -37 -64
-89 -90 l-60 -30 -228 -3 -228 -4 0 261 0 261 194 0 c106 0 218 -5 247 -10z"/>
<path d="M13313 2558 c4 -617 6 -634 68 -783 77 -184 249 -330 456 -387 112
-30 334 -30 446 0 245 67 413 233 488 482 23 74 23 84 27 663 l3 587 -191 0
-190 0 0 -522 c0 -558 -4 -607 -50 -699 -40 -78 -86 -126 -158 -161 -60 -30
-76 -33 -152 -33 -76 0 -93 4 -152 33 -36 18 -81 49 -99 69 -41 47 -86 143
-99 212 -6 32 -10 263 -10 577 l0 524 -196 0 -195 0 4 -562z"/>
<path d="M15460 2250 l0 -870 190 0 190 0 2 278 3 277 131 3 132 3 29 -38 c16
-21 105 -147 198 -280 l168 -243 234 0 235 0 -18 28 c-9 15 -105 150 -211 301
-107 150 -196 278 -199 285 -2 6 22 22 53 36 112 48 211 172 249 311 24 87 29
241 11 342 -46 265 -208 391 -547 427 -52 5 -265 10 -472 10 l-378 0 0 -870z
m821 530 c141 -27 194 -92 194 -240 0 -74 -4 -92 -30 -145 -26 -53 -37 -64
-89 -90 l-60 -30 -228 -3 -228 -4 0 261 0 261 194 0 c106 0 218 -5 247 -10z"/>
<path d="M17530 2250 l0 -870 565 0 565 0 0 170 0 170 -375 0 -375 0 0 700 0
700 -190 0 -190 0 0 -870z"/>
<path d="M20170 2920 l0 -200 -80 0 -80 0 0 -135 0 -135 80 0 80 0 0 -337 c0
-368 7 -427 55 -523 91 -180 331 -274 536 -210 69 21 169 76 208 114 l23 24
-67 127 -67 127 -32 -31 c-87 -84 -214 -79 -263 11 -16 30 -18 68 -21 366 l-3
332 165 0 166 0 0 135 0 135 -165 0 -165 0 0 200 0 200 -185 0 -185 0 0 -200z"/>
<path d="M10265 2733 c-281 -39 -517 -246 -581 -509 -23 -91 -23 -266 0 -358
59 -243 268 -437 528 -490 248 -51 476 17 676 201 l52 48 -109 122 -109 121
-43 -44 c-92 -94 -184 -136 -299 -136 -97 0 -172 28 -240 89 -63 56 -97 122
-109 208 -31 220 88 390 297 424 121 19 264 -25 357 -110 53 -49 37 -59 155
95 l84 109 -53 48 c-147 136 -397 211 -606 182z"/>
<path d="M21965 2734 c-11 -2 -45 -9 -75 -15 -153 -31 -321 -147 -410 -284
-66 -102 -93 -198 -98 -352 -8 -241 42 -380 187 -523 135 -134 260 -187 467
-197 124 -6 235 11 336 52 63 26 182 101 212 134 23 25 20 30 -98 155 l-84 90
-38 -34 c-144 -126 -391 -130 -529 -8 -43 38 -95 123 -95 156 0 9 105 12 490
12 l490 0 0 129 c0 73 -7 164 -15 208 -46 241 -238 420 -505 469 -70 12 -190
17 -235 8z m220 -324 c22 -9 55 -30 74 -46 38 -32 81 -115 81 -156 l0 -28
-296 0 -296 0 7 33 c35 167 260 271 430 197z"/>
<path d="M23765 2733 c-281 -39 -517 -246 -581 -509 -23 -91 -23 -266 0 -358
59 -243 268 -437 528 -490 248 -51 476 17 676 201 l52 48 -109 122 -109 121
-43 -44 c-92 -94 -184 -136 -299 -136 -97 0 -172 28 -240 89 -63 56 -97 122
-109 208 -31 220 88 390 297 424 121 19 264 -25 357 -110 53 -49 37 -59 155
95 l84 109 -53 48 c-147 136 -397 211 -606 182z"/>
<path d="M8760 2050 l0 -670 185 0 185 0 0 670 0 670 -185 0 -185 0 0 -670z"/>
<path d="M19271 1775 c-24 -8 -61 -31 -83 -52 -84 -82 -86 -212 -6 -299 150
-162 416 -21 368 194 -16 74 -73 136 -143 157 -60 18 -78 18 -136 0z"/>
</g>
</svg>
